<?xml version="1.0" encoding="UTF-8"?>
<svg width="224px" height="54px" viewBox="0 0 224 54" version="1.1" xmlns="http://www.w3.org/2000/svg" xmlns:xlink="http://www.w3.org/1999/xlink">
    <title>Logo</title>
    <g id="Hermstudio-·-Claude-Chat-Bakup" stroke="none" stroke-width="1" fill="none" fill-rule="evenodd">
        <g transform="translate(-288, -66)" fill-rule="nonzero" id="Logo">
            <g transform="translate(288, 66)">
                <g id="claude-text" transform="translate(64.0001, 8)" fill="#000000">
                    <path d="M19.9964301,34.7905697 C14.117715,34.7905697 10.0987866,31.5200291 8.20287083,26.4860459 C7.21175682,23.8640234 6.72268014,21.0789711 6.76114907,18.2761459 C6.76114907,9.83398756 10.5564214,3.97075635 18.9418055,3.97075635 C24.5762193,3.97075635 28.0549321,6.42237151 30.035149,12.2735597 L32.4471943,12.2735597 L32.1203122,4.20473506 C28.7465457,2.0301094 24.5297676,0.93419441 19.3994403,0.93419441 C12.1736272,0.93419441 6.02308387,4.1582834 2.60286567,9.97334253 C0.836831329,13.0429893 -0.0617174106,16.5349008 0.00329337708,20.0757174 C0.00329337708,26.5324976 3.0605005,32.2563738 8.79986063,35.4322907 C11.9422921,37.1057867 15.4654487,37.9345555 19.0243862,37.8374542 C24.6226709,37.8374542 29.0631051,36.7759479 32.9977324,34.9178816 L34.0179484,26.0198089 L31.5577311,26.0198089 C30.0816007,30.0834686 28.3233195,32.5230407 25.4089082,33.8202462 C23.9792295,34.4619673 22.1744966,34.7905697 19.9964301,34.7905697 Z M45.3555932,3.97075635 L45.589572,0 L43.9259145,0 L36.5246174,2.21935688 L36.5246174,3.42193864 L39.8054806,4.93935939 L39.8054806,32.7105678 C39.8054806,34.6030426 38.8334367,35.022828 36.2906387,35.3393874 L36.2906387,37.3694968 L48.8824782,37.3694968 L48.8824782,35.3393874 C46.3293576,35.022828 45.3693567,34.6030426 45.3693567,32.7105678 L45.3693567,3.98279937 L45.3573137,3.97075635 L45.3555932,3.97075635 Z M95.4270373,37.8374542 L96.3990812,37.8374542 L104.915218,36.2254097 L104.915218,34.1471283 L103.719518,34.0542249 C101.728979,33.8666979 101.212849,33.4589556 101.212849,31.8348681 L101.212849,17.0271125 L101.448548,12.2735597 L100.10145,12.2735597 L92.0532707,13.4296898 L92.0532707,15.4615196 L92.839508,15.602595 C95.0175745,15.917434 95.661016,16.5247464 95.661016,18.0438876 L95.661016,31.2395987 C93.5758527,32.8516432 91.5853133,33.8666979 89.2197197,33.8666979 C86.5960614,33.8666979 84.968533,32.5350838 84.968533,29.4279841 L84.968533,17.0408759 L85.2025117,12.2873232 L83.8192846,12.2873232 L75.7607826,13.4434533 L75.7607826,15.4752831 L76.5934715,15.6163585 C78.771538,15.9311975 79.4149795,16.5385099 79.4149795,18.0559306 L79.4149795,30.236587 C79.4149795,35.3978821 82.3448747,37.8512177 87.0055241,37.8512177 C90.5668177,37.8512177 93.4829494,35.9587428 95.673059,33.3316436 L95.4390803,37.8494973 L95.4270373,37.8374542 Z M72.0257254,21.4073316 C72.0257254,14.8077556 68.5108834,12.2735597 62.1624905,12.2735597 C56.5642057,12.2735597 52.5005461,14.5858199 52.5005461,18.4155008 C52.5005461,19.5613084 52.9100088,20.4370081 53.7409773,21.0443205 L58.0042071,20.4834597 C57.81668,19.2000177 57.7237767,18.4172213 57.7237767,18.0903393 C57.7237767,15.917434 58.8833477,14.8197986 61.2368982,14.8197986 C64.7156111,14.8197986 66.4738923,17.2610912 66.4738923,21.1853959 L66.4738923,22.4688379 L57.6893681,25.0959371 C54.7611933,25.8907766 53.0958154,26.5806697 51.9844166,28.1927142 C51.3953649,29.1778471 51.1104672,30.3150436 51.1654911,31.4615344 C51.1654911,35.198312 53.7409773,37.8374542 58.1452825,37.8374542 C61.331522,37.8374542 64.1547504,36.4008938 66.6132473,33.6808913 C67.4906674,36.4008938 68.8394859,37.8374542 71.2412085,37.8374542 C73.1852963,37.8374542 74.9401366,37.0546578 76.5108908,35.525194 L76.0429334,33.9131495 C75.3833427,34.098688 74.7014539,34.193041 74.0162648,34.1935799 C72.6691668,34.1935799 72.0257254,33.1320736 72.0257254,31.0520716 L72.0257254,21.4056111 L72.0257254,21.4073316 Z M60.7809838,34.1006766 C58.3792612,34.1006766 56.8928082,32.7105678 56.8928082,30.2709956 C56.8928082,28.6124995 57.677325,27.642176 59.3530255,27.0813153 L66.4738923,24.8275498 L66.4738923,31.6490614 C64.201202,33.3643318 62.866147,34.1006766 60.7792634,34.1006766 L60.7809838,34.1006766 Z M134.922988,36.2254097 L134.922988,34.1471283 L133.716965,34.0542249 C131.724705,33.8666979 131.222339,33.4589556 131.222339,31.8348681 L131.222339,3.97075635 L131.456318,0 L129.780617,0 L122.37932,2.21935688 L122.37932,3.42193864 L125.658463,4.93935939 L125.658463,14.0731313 C123.811121,12.8098938 121.604503,12.1785694 119.368565,12.2735597 C112.011999,12.2735597 106.272639,17.8563605 106.272639,26.2056156 C106.272639,33.0839015 110.396513,37.8374542 117.190498,37.8374542 C120.70362,37.8374542 123.760827,36.1342269 125.658463,33.4933642 L125.424484,37.8374542 L126.406851,37.8374542 L134.922988,36.2254097 L134.922988,36.2254097 Z M119.50792,15.0417343 C123.022762,15.0417343 125.658463,17.0735641 125.658463,20.8103418 L125.658463,31.3221794 C124.039017,32.9301467 121.83787,33.8144529 119.556092,33.7737946 C114.518668,33.7737946 111.965547,29.8030382 111.965547,24.5006677 C111.965547,18.5445332 114.881679,15.0417343 119.50964,15.0417343 L119.50792,15.0417343 Z M152.925585,20.2976531 C152.2701,17.2146395 150.372464,15.4632401 147.736763,15.4632401 C143.800415,15.4632401 141.071811,18.4172213 141.071811,22.6546445 C141.071811,28.9273385 144.399125,32.9909982 149.775474,32.9909982 C153.358036,32.9560658 156.652728,31.0218259 158.429246,27.9105634 L160,28.3320691 C159.298064,33.7737946 154.355264,37.8374542 148.287301,37.8374542 C141.164714,37.8374542 136.258043,32.5832558 136.258043,25.1079801 C136.258043,17.5759302 141.58794,12.2735597 148.708807,12.2735597 C154.024941,12.2735597 157.775482,15.4615196 158.979784,20.9961484 L140.428369,26.673573 L140.428369,24.1720653 L152.925585,20.3062553 L152.925585,20.2959327 L152.925585,20.2976531 Z" id="形状"></path>
                </g>
                <g id="claude-color" fill="#D97757">
                    <path d="M10.59525,35.89875 L21.21525,29.943 L21.39525,29.4255 L21.21525,29.1375 L20.7,29.1375 L18.9225,29.0295 L12.852,28.86525 L7.58925,28.647 L2.49075,28.3725 L1.206,28.10025 L0,26.514 L0.12375,25.722 L1.20375,24.99975 L2.74725,25.13475 L6.16725,25.3665 L11.29275,25.722 L15.00975,25.94025 L20.52,26.514 L21.39525,26.514 L21.519,26.16075 L21.2175,25.94025 L20.98575,25.722 L15.68025,22.131 L9.93825,18.333 L6.93225,16.146 L5.30325,15.04125 L4.48425,14.00175 L4.12875,11.73375 L5.60475,10.10925 L7.587,10.24425 L8.09325,10.3815 L10.1025,11.925 L14.3955,15.246 L20.00025,19.37025 L20.8215,20.05425 L21.14775,19.8225 L21.1905,19.65825 L20.8215,19.04175 L17.77275,13.53825 L14.51925,7.93575 L13.07025,5.61375 L12.68775,4.221 C12.542009,3.68607407 12.463405,3.13509011 12.45375,2.58075 L14.13675,0.3015 L15.066,0 L17.307,0.3015 L18.252,1.1205 L19.647,4.302 L21.9015,9.31725 L25.40025,16.13475 L26.42625,18.15525 L26.973,20.02725 L27.17775,20.601 L27.53325,20.601 L27.53325,20.2725 L27.82125,16.434 L28.3545,11.72025 L28.872,5.6565 L29.052,3.9465 L29.898,1.899 L31.57875,0.792 L32.89275,1.422 L33.97275,2.96325 L33.822,3.96225 L33.1785,8.127 L31.92075,14.65875 L31.10175,19.02825 L31.57875,19.02825 L32.1255,18.48375 L34.34175,15.54525 L38.05875,10.90125 L39.70125,9.05625 L41.61375,7.02225 L42.8445,6.0525 L45.16875,6.0525 L46.87875,8.59275 L46.11375,11.21625 L43.71975,14.247 L41.7375,16.8165 L38.8935,20.6415 L37.116,23.7015 L37.28025,23.949 L37.70325,23.904 L44.12925,22.5405 L47.601,21.9105 L51.74325,21.20175 L53.6175,22.07475 L53.82225,22.9635 L53.08425,24.77925 L48.654,25.87275 L43.45875,26.91225 L35.721,28.7415 L35.6265,28.809 L35.73675,28.94625 L39.222,29.27475 L40.7115,29.35575 L44.361,29.35575 L51.156,29.862 L52.9335,31.0365 L54,32.472 L53.82225,33.56325 L51.0885,34.95825 L47.3985,34.083 L38.78325,32.0355 L35.83125,31.29525 L35.42175,31.29525 L35.42175,31.54275 L37.881,33.94575 L42.3945,38.01825 L48.03975,43.26075 L48.3255,44.56125 L47.601,45.585 L46.836,45.47475 L41.87475,41.7465 L39.96,40.06575 L35.6265,36.42075 L35.3385,36.42075 L35.3385,36.80325 L36.3375,38.2635 L41.61375,46.18575 L41.88825,48.61575 L41.50575,49.41 L40.13775,49.88925 L38.63475,49.61475 L35.54325,45.2835 L32.3595,40.40775 L29.78775,36.036 L29.47275,36.216 L27.95625,52.5375 L27.24525,53.37 L25.605,54 L24.23925,52.96275 L23.51475,51.282 L24.23925,47.961 L25.1145,43.632 L25.82325,40.1895 L26.46675,35.9145 L26.84925,34.4925 L26.82225,34.398 L26.50725,34.4385 L23.28075,38.86425 L18.37575,45.4905 L14.49225,49.64175 L13.56075,50.01075 L11.9475,49.17825 L12.09825,47.68875 L13.0005,46.3635 L18.3735,39.5325 L21.6135,35.298 L23.706,32.8545 L23.6925,32.499 L23.56875,32.499 L9.297,41.76 L6.7545,42.0885 L5.65875,41.0625 L5.796,39.384 L6.31575,38.83725 L10.60875,35.88525 L10.59525,35.89875 Z" id="路径"></path>
                </g>
            </g>
        </g>
    </g>
</svg>