
<svg width="100px" height="100px" viewBox="0 0 100 100" version="1.1" xmlns="http://www.w3.org/2000/svg" xmlns:xlink="http://www.w3.org/1999/xlink">
    <g id="Hermstudio-·-Claude-Chat-Bakup" stroke="none" stroke-width="1" fill="none" fill-rule="evenodd" opacity="0.1">
        <g transform="translate(-623, -352)" fill="#FFFFFF" fill-rule="nonzero" id="Others">
            <g transform="translate(524, 198)" id="路径">
                <path d="M118.620833,220.479167 L138.2875,209.45 L138.620833,208.491667 L138.2875,207.958333 L137.333333,207.958333 L134.041667,207.758333 L122.8,207.454167 L113.054167,207.05 L103.6125,206.541667 L101.233333,206.0375 L99,203.1 L99.2291667,201.633333 L101.229167,200.295833 L104.0875,200.545833 L110.420833,200.975 L119.9125,201.633333 L126.795833,202.0375 L137,203.1 L138.620833,203.1 L138.85,202.445833 L138.291667,202.0375 L137.8625,201.633333 L128.0375,194.983333 L117.404167,187.95 L111.8375,183.9 L108.820833,181.854167 L107.304167,179.929167 L106.645833,175.729167 L109.379167,172.720833 L113.05,172.970833 L113.9875,173.225 L117.708333,176.083333 L125.658333,182.233333 L136.0375,189.870833 L137.558333,191.1375 L138.1625,190.708333 L138.241667,190.404167 L137.558333,189.2625 L131.9125,179.070833 L125.8875,168.695833 L123.204167,164.395833 L122.495833,161.816667 C122.225943,160.826063 122.08038,159.805722 122.0625,158.779167 L125.179167,154.558333 L126.9,154 L131.05,154.558333 L132.8,156.075 L135.383333,161.966667 L139.558333,171.254167 L146.0375,183.879167 L147.9375,187.620833 L148.95,191.0875 L149.329167,192.15 L149.9875,192.15 L149.9875,191.541667 L150.520833,184.433333 L151.508333,175.704167 L152.466667,164.475 L152.8,161.308333 L154.366667,157.516667 L157.479167,155.466667 L159.9125,156.633333 L161.9125,159.4875 L161.633333,161.3375 L160.441667,169.05 L158.1125,181.145833 L156.595833,189.2375 L157.479167,189.2375 L158.491667,188.229167 L162.595833,182.7875 L169.479167,174.1875 L172.520833,170.770833 L176.0625,167.004167 L178.341667,165.208333 L182.645833,165.208333 L185.8125,169.9125 L184.395833,174.770833 L179.9625,180.383333 L176.291667,185.141667 L171.025,192.225 L167.733333,197.891667 L168.0375,198.35 L168.820833,198.266667 L180.720833,195.741667 L187.15,194.575 L194.820833,193.2625 L198.291667,194.879167 L198.670833,196.525 L197.304167,199.8875 L189.1,201.9125 L179.479167,203.8375 L165.15,207.225 L164.975,207.35 L165.179167,207.604167 L171.633333,208.2125 L174.391667,208.3625 L181.15,208.3625 L193.733333,209.3 L197.025,211.475 L199,214.133333 L198.670833,216.154167 L193.608333,218.7375 L186.775,217.116667 L170.820833,213.325 L165.354167,211.954167 L164.595833,211.954167 L164.595833,212.4125 L169.15,216.8625 L177.508333,224.404167 L187.9625,234.1125 L188.491667,236.520833 L187.15,238.416667 L185.733333,238.2125 L176.545833,231.308333 L173,228.195833 L164.975,221.445833 L164.441667,221.445833 L164.441667,222.154167 L166.291667,224.858333 L176.0625,239.529167 L176.570833,244.029167 L175.8625,245.5 L173.329167,246.3875 L170.545833,245.879167 L164.820833,237.858333 L158.925,228.829167 L154.1625,220.733333 L153.579167,221.066667 L150.770833,251.291667 L149.454167,252.833333 L146.416667,254 L143.8875,252.079167 L142.545833,248.966667 L143.8875,242.816667 L145.508333,234.8 L146.820833,228.425 L148.0125,220.508333 L148.720833,217.875 L148.670833,217.7 L148.0875,217.775 L142.1125,225.970833 L133.029167,238.241667 L125.8375,245.929167 L124.1125,246.6125 L121.125,245.070833 L121.404167,242.3125 L123.075,239.858333 L133.025,227.208333 L139.025,219.366667 L142.9,214.841667 L142.875,214.183333 L142.645833,214.183333 L116.216667,231.333333 L111.508333,231.941667 L109.479167,230.041667 L109.733333,226.933333 L110.695833,225.920833 L118.645833,220.454167 L118.620833,220.479167 Z"></path>
            </g>
        </g>
    </g>
</svg>
