<svg width="20" height="20" viewBox="0 0 20 20" fill="#f37f56" xmlns="http://www.w3.org/2000/svg">
    <path d="M5 3.5C5 2.67157 5.67157 2 6.5 2H13.5C14.3284 2 15 2.67157 15 3.5V17.5C15 17.6894 14.8909 17.8625 14.7211 17.9472C14.5513 18.0319 14.3483 18.0136 14.1963 17.9L10 14.6289L5.80371 17.9C5.65171 18.0136 5.44866 18.0319 5.27886 17.9472C5.10906 17.8625 5 17.6894 5 17.5V3.5ZM6.5 3C6.22386 3 6 3.22386 6 3.5V16.4198L9.69629 13.6C9.87278 13.4667 10.1272 13.4667 10.3037 13.6L14 16.4198V3.5C14 3.22386 13.7761 3 13.5 3H6.5Z"/>
</svg>
